<svg width="31" height="31" viewBox="0 0 31 31" fill="none" xmlns="http://www.w3.org/2000/svg">
<circle cx="15.5" cy="15.5" r="15.5" fill="#FF6901"/>
<path d="M23.9568 11.9981C23.917 11.0948 23.7709 10.4738 23.5616 9.93569C23.3457 9.36451 23.0135 8.85313 22.5783 8.42802C22.1531 7.99629 21.6383 7.66082 21.0736 7.44833C20.5323 7.23908 19.9144 7.09301 19.011 7.05319C18.1008 7.00999 17.8118 7 15.5033 7C13.1948 7 12.9058 7.00999 11.999 7.04981C11.0956 7.08964 10.4745 7.23584 9.93638 7.44496C9.36496 7.66082 8.85348 7.99292 8.42829 8.42802C7.99648 8.85313 7.66108 9.36788 7.44842 9.93244C7.23913 10.4738 7.09303 11.0914 7.0532 11.9947C7.00999 12.9047 7 13.1936 7 15.5017C7 17.8098 7.00999 18.0987 7.04982 19.0053C7.08966 19.9086 7.23589 20.5296 7.44517 21.0677C7.66108 21.6389 7.99648 22.1502 8.42829 22.5754C8.85348 23.0071 9.36833 23.3426 9.933 23.555C10.4745 23.7643 11.0922 23.9104 11.9958 23.9502C12.9025 23.9901 13.1915 24 15.5001 24C17.8086 24 18.0975 23.9901 19.0044 23.9502C19.9078 23.9104 20.5289 23.7643 21.067 23.555C22.2097 23.1133 23.1132 22.21 23.555 21.0677C23.7641 20.5263 23.9103 19.9086 23.9502 19.0053C23.99 18.0987 24 17.8098 24 15.5017C24 13.1936 23.9966 12.9047 23.9568 11.9981ZM22.4256 18.9389C22.389 19.7691 22.2495 20.2175 22.1333 20.5164C21.8476 21.257 21.2597 21.8447 20.5189 22.1304C20.22 22.2466 19.7683 22.3861 18.9412 22.4225C18.0443 22.4625 17.7754 22.4724 15.5067 22.4724C13.238 22.4724 12.9657 22.4625 12.0721 22.4225C11.2417 22.3861 10.7932 22.2466 10.4943 22.1304C10.1257 21.9942 9.79015 21.7783 9.5178 21.496C9.23547 21.2204 9.01956 20.8883 8.88332 20.5197C8.76707 20.2208 8.62759 19.7691 8.59113 18.9423C8.55116 18.0456 8.5413 17.7766 8.5413 15.5083C8.5413 13.2401 8.55116 12.9678 8.59113 12.0745C8.62759 11.2442 8.76707 10.7959 8.88332 10.497C9.01956 10.1283 9.23547 9.79299 9.52118 9.52057C9.79677 9.23828 10.1289 9.02242 10.4977 8.88634C10.7966 8.7701 11.2484 8.63065 12.0754 8.59407C12.9723 8.55424 13.2414 8.54425 15.5099 8.54425C17.782 8.54425 18.051 8.55424 18.9445 8.59407C19.7749 8.63065 20.2234 8.7701 20.5223 8.88634C20.8909 9.02242 21.2265 9.23828 21.4988 9.52057C21.7811 9.79623 21.997 10.1283 22.1333 10.497C22.2495 10.7959 22.389 11.2475 22.4256 12.0745C22.4654 12.9711 22.4754 13.2401 22.4754 15.5083C22.4754 17.7766 22.4654 18.0422 22.4256 18.9389Z" fill="#040610"/>
<path d="M15.5 11.1428C13.0945 11.1428 11.1428 13.0944 11.1428 15.5C11.1428 17.9056 13.0945 19.8571 15.5 19.8571C17.9056 19.8571 19.8571 17.9056 19.8571 15.5C19.8571 13.0944 17.9056 11.1428 15.5 11.1428ZM15.5 18.3263C13.9394 18.3263 12.6736 17.0606 12.6736 15.5C12.6736 13.9393 13.9394 12.6736 15.5 12.6736C17.0606 12.6736 18.3263 13.9393 18.3263 15.5C18.3263 17.0606 17.0606 18.3263 15.5 18.3263Z" fill="#040610"/>
<path d="M20.9999 11.0002C20.9999 11.5525 20.5521 12.0002 19.9998 12.0002C19.4476 12.0002 18.9999 11.5525 18.9999 11.0002C18.9999 10.4479 19.4476 10.0002 19.9998 10.0002C20.5521 10.0002 20.9999 10.4479 20.9999 11.0002Z" fill="#040610"/>
</svg>
