<svg width="10" height="10" viewBox="0 0 10 10" fill="none" xmlns="http://www.w3.org/2000/svg">
<path fill-rule="evenodd" clip-rule="evenodd" d="M5 10C7.76142 10 10 7.76142 10 5C10 2.23858 7.76142 0 5 0C2.23858 0 0 2.23858 0 5C0 7.76142 2.23858 10 5 10ZM5.428 2.8H4.312L4.498 5.542H5.242L5.428 2.8ZM4.456 6.892C4.568 6.996 4.706 7.048 4.87 7.048C5.034 7.048 5.17 6.996 5.278 6.892C5.39 6.784 5.446 6.654 5.446 6.502C5.446 6.35 5.392 6.224 5.284 6.124C5.176 6.02 5.038 5.968 4.87 5.968C4.702 5.968 4.564 6.02 4.456 6.124C4.348 6.224 4.294 6.35 4.294 6.502C4.294 6.654 4.348 6.784 4.456 6.892Z" fill="#FF5A5A"/>
</svg>
