<svg width="39" height="39" viewBox="0 0 39 39" fill="none" xmlns="http://www.w3.org/2000/svg">
<path d="M38.9009 11.4659C38.8095 9.39367 38.4743 7.96903 37.9942 6.73457C37.4989 5.42421 36.7369 4.25105 35.7385 3.2758C34.7631 2.28537 33.582 1.51576 32.2865 1.02828C31.0447 0.548243 29.6272 0.213139 27.5546 0.121774C25.4665 0.0226715 24.8036 -0.000244141 19.5076 -0.000244141C14.2116 -0.000244141 13.5487 0.0226715 11.4683 0.114036C9.39571 0.205401 7.9708 0.540802 6.73639 1.02054C5.42549 1.51576 4.2521 2.27763 3.27667 3.2758C2.28605 4.25105 1.51659 5.43195 1.02872 6.72713C0.548591 7.96903 0.213424 9.38593 0.122041 11.4582C0.02292 13.5459 0 14.2086 0 19.5036C0 24.7986 0.02292 25.4614 0.114302 27.5414C0.205685 29.6136 0.54115 31.0382 1.02128 32.2727C1.51659 33.583 2.28605 34.7562 3.27667 35.7315C4.2521 36.7219 5.43323 37.4915 6.72865 37.979C7.9708 38.459 9.38797 38.7941 11.4609 38.8855C13.541 38.9771 14.2041 38.9998 19.5001 38.9998C24.7962 38.9998 25.459 38.9771 27.5394 38.8855C29.612 38.7941 31.0369 38.459 32.2713 37.979C34.8929 36.9656 36.9655 34.8934 37.979 32.2727C38.4589 31.0308 38.7943 29.6136 38.8857 27.5414C38.9771 25.4614 39 24.7986 39 19.5036C39 14.2086 38.9923 13.5459 38.9009 11.4659ZM35.3882 27.389C35.3042 29.2937 34.9842 30.3222 34.7175 31.0079C34.0621 32.7069 32.7134 34.0553 31.014 34.7107C30.3282 34.9773 29.292 35.2972 27.3944 35.3809C25.337 35.4725 24.72 35.4952 19.5153 35.4952C14.3107 35.4952 13.6859 35.4725 11.6359 35.3809C9.73088 35.2972 8.70216 34.9773 8.01634 34.7107C7.17068 34.3982 6.40093 33.903 5.77614 33.2554C5.12842 32.623 4.63311 31.8611 4.32057 31.0156C4.05386 30.3299 3.73388 29.2937 3.65023 27.3967C3.55855 25.3397 3.53593 24.7224 3.53593 19.5188C3.53593 14.3152 3.55855 13.6905 3.65023 11.6412C3.73388 9.73651 4.05386 8.70799 4.32057 8.0223C4.63311 7.17651 5.12842 6.4072 5.78387 5.78223C6.41611 5.13464 7.17812 4.63942 8.02408 4.32724C8.70989 4.06058 9.74635 3.74066 11.6437 3.65673C13.7011 3.56537 14.3184 3.54245 19.5228 3.54245C24.7351 3.54245 25.3522 3.56537 27.4022 3.65673C29.3072 3.74066 30.3359 4.06058 31.0218 4.32724C31.8674 4.63942 32.6372 5.13464 33.262 5.78223C33.9097 6.41464 34.405 7.17651 34.7175 8.0223C34.9842 8.70799 35.3042 9.74395 35.3882 11.6412C35.4795 13.6982 35.5025 14.3152 35.5025 19.5188C35.5025 24.7224 35.4795 25.3319 35.3882 27.389Z" fill="#FF6901"/>
<path d="M19.5001 9.50403C13.9816 9.50403 9.50426 13.9811 9.50426 19.4998C9.50426 25.0185 13.9816 29.4956 19.5001 29.4956C25.0188 29.4956 29.4959 25.0185 29.4959 19.4998C29.4959 13.9811 25.0188 9.50403 19.5001 9.50403ZM19.5001 25.9839C15.92 25.9839 13.016 23.0802 13.016 19.4998C13.016 15.9195 15.92 13.0158 19.5001 13.0158C23.0804 13.0158 25.9841 15.9195 25.9841 19.4998C25.9841 23.0802 23.0804 25.9839 19.5001 25.9839Z" fill="#FF6901"/>
<path d="M32.1176 9.1762C32.1176 10.4431 31.0904 11.4703 29.8233 11.4703C28.5565 11.4703 27.5293 10.4431 27.5293 9.1762C27.5293 7.90902 28.5565 6.88208 29.8233 6.88208C31.0904 6.88208 32.1176 7.90902 32.1176 9.1762Z" fill="#FF6901"/>
</svg>
