<svg width="31" height="31" viewBox="0 0 31 31" fill="none" xmlns="http://www.w3.org/2000/svg">
<circle cx="15.5" cy="15.5" r="15.5" fill="#FF6901"/>
<path d="M8.24728 15.2335L11.4732 16.5175L12.7218 20.8001C12.8017 21.0744 13.1162 21.1758 13.3249 20.9938L15.1231 19.4304C15.3116 19.2666 15.58 19.2584 15.777 19.4109L19.0202 21.9222C19.2435 22.0953 19.5599 21.9648 19.6159 21.677L21.9918 9.48872C22.0529 9.17437 21.7633 8.91213 21.4826 9.02789L8.2435 14.4748C7.91679 14.6092 7.91963 15.1025 8.24728 15.2335ZM12.5206 15.834L18.8251 11.6927C18.9384 11.6185 19.055 11.7819 18.9577 11.8782L13.7546 17.0364C13.5717 17.2179 13.4537 17.4609 13.4203 17.7247L13.2431 19.1255C13.2196 19.3125 12.9733 19.3311 12.9249 19.1501L12.2432 16.5956C12.1651 16.3043 12.2789 15.993 12.5206 15.834Z" fill="#040610"/>
</svg>
