<svg width="32" height="31" viewBox="0 0 32 31" fill="none" xmlns="http://www.w3.org/2000/svg">
<ellipse cx="16" cy="15.5" rx="16" ry="15.5" fill="#FF6901"/>
<path d="M19.5959 16.6791L19.5899 16.7326C18.1413 15.9501 17.9898 15.8459 17.8027 16.15C17.673 16.3606 17.2948 16.8383 17.1809 16.9796C17.0656 17.1188 16.951 17.1295 16.7553 17.0332C16.5577 16.9261 15.9233 16.7012 15.1723 15.973C14.5873 15.4054 14.1947 14.7093 14.0788 14.4951C13.8857 14.1339 14.2896 14.0825 14.6572 13.3286C14.723 13.1787 14.6894 13.0609 14.6407 12.9545C14.5913 12.8474 14.198 11.7979 14.0333 11.3795C13.8752 10.9626 13.7125 11.0154 13.5906 11.0154C13.2112 10.9797 12.9338 10.9855 12.6894 11.261C11.6262 12.5275 11.8943 13.834 12.8041 15.2234C14.5919 17.7592 15.5445 18.2261 17.2863 18.8744C17.7566 19.0365 18.1855 19.0136 18.5247 18.9608C18.9029 18.8958 19.6888 18.446 19.8528 17.9427C20.0208 17.4394 20.0208 17.0217 19.9714 16.9254C19.9226 16.829 19.7935 16.7754 19.5959 16.6791Z" fill="#040610"/>
<path d="M21.68 9.29958C16.554 4.34434 8.07067 7.93827 8.06733 14.9288C8.06733 16.3261 8.43333 17.6888 9.13067 18.8921L8 23L12.2233 21.8987C17.4933 24.7453 23.9973 20.9654 24 14.9328C24 12.8155 23.1733 10.8229 21.67 9.32558L21.68 9.29958ZM22.668 14.9108C22.664 19.9994 17.078 23.1773 12.66 20.58L12.42 20.4374L9.92 21.0874L10.59 18.6574L10.4307 18.4074C7.68133 14.0308 10.84 8.31093 16.048 8.31093C17.8173 8.31093 19.478 9.00092 20.7287 10.2509C21.9787 11.4902 22.668 13.1508 22.668 14.9108Z" fill="#040610"/>
</svg>
